HIERARCHY
ROOT root
{
	OFFSET 0.00 0.00 0.00
	CHANNELS 6 Xposition Yposition Zposition Zrotation Xrotation Yrotation
	JOINT lowerback
	{
		OFFSET 0 0 0
		CHANNELS 6 Xposition Yposition Zposition Zrotation Xrotation Yrotation
		JOINT upperback
		{
			OFFSET -0.214371 12.3768 -1.12219
			CHANNELS 6 Xposition Yposition Zposition Zrotation Xrotation Yrotation
			JOINT thorax
			{
				OFFSET -0.00137213 12.3873 0.296195
				CHANNELS 6 Xposition Yposition Zposition Zrotation Xrotation Yrotation
				JOINT lowerneck
				{
					OFFSET 0.0883157 12.5016 0.82912
					CHANNELS 6 Xposition Yposition Zposition Zrotation Xrotation Yrotation
					JOINT upperneck
					{
						OFFSET -1 10.1794 0.943522
						CHANNELS 6 Xposition Yposition Zposition Zrotation Xrotation Yrotation
						JOINT head
						{
							OFFSET 0.667525 10.2797 -1.57149
							CHANNELS 6 Xposition Yposition Zposition Zrotation Xrotation Yrotation
							End Site
							{
								OFFSET 0 0 0
							}
						}
					}
				}
				JOINT lclavicle
				{
					OFFSET 0.0883157 12.5016 0.82912
					CHANNELS 6 Xposition Yposition Zposition Zrotation Xrotation Yrotation
					JOINT lhumerus
					{
						OFFSET 20.61 4.45006 1.43784
						CHANNELS 6 Xposition Yposition Zposition Zrotation Xrotation Yrotation
						JOINT lradius
						{
							OFFSET 0 -30.3438 0
							CHANNELS 6 Xposition Yposition Zposition Zrotation Xrotation Yrotation
							JOINT lwrist
							{
								OFFSET 0 -18.964 0
								CHANNELS 6 Xposition Yposition Zposition Zrotation Xrotation Yrotation
								JOINT lhand
								{
									OFFSET 0 -9.48199 0
									CHANNELS 6 Xposition Yposition Zposition Zrotation Xrotation Yrotation
									JOINT lfingers
									{
										OFFSET 0 -3.17138 0
										CHANNELS 6 Xposition Yposition Zposition Zrotation Xrotation Yrotation
										End Site
										{
											OFFSET 0 -2.55685 0
										}
									}
								}
								JOINT lthumb
								{
									OFFSET 0 -9.48199 0
									CHANNELS 6 Xposition Yposition Zposition Zrotation Xrotation Yrotation
									End Site
									{
										OFFSET 0 -3.67114 0
									}
								}
							}
						}
					}
				}
				JOINT rclavicle
				{
					OFFSET 0.0883157 12.5016 0.82912
					CHANNELS 6 Xposition Yposition Zposition Zrotation Xrotation Yrotation
					JOINT rhumerus
					{
						OFFSET -20.61 4.45 1.44
						CHANNELS 6 Xposition Yposition Zposition Zrotation Xrotation Yrotation
						JOINT rradius
						{
							OFFSET 0 -29.5102 0
							CHANNELS 6 Xposition Yposition Zposition Zrotation Xrotation Yrotation
							JOINT rwrist
							{
								OFFSET 0 -19.2342 0
								CHANNELS 6 Xposition Yposition Zposition Zrotation Xrotation Yrotation
								JOINT rhand
								{
									OFFSET 0 -9.61712 0
									CHANNELS 6 Xposition Yposition Zposition Zrotation Xrotation Yrotation
									JOINT rfingers
									{
										OFFSET 0 -3.29215 0
										CHANNELS 6 Xposition Yposition Zposition Zrotation Xrotation Yrotation
										End Site
										{
											OFFSET 0 -2.557 0
										}
									}
								}
								JOINT rthumb
								{
									OFFSET 0 -9.61712 0
									CHANNELS 6 Xposition Yposition Zposition Zrotation Xrotation Yrotation
									End Site
									{
										OFFSET 0 -3.671 0
									}
								}
							}
						}
					}
				}
			}
		}
	}
	JOINT rfemur
	{
		OFFSET -8.46272 -9.62775 4.76248
		CHANNELS 6 Xposition Yposition Zposition Zrotation Xrotation Yrotation
		JOINT rtibia
		{
			OFFSET 1.00552e-005 -38.0331 0
			CHANNELS 6 Xposition Yposition Zposition Zrotation Xrotation Yrotation
			JOINT rfoot
			{
				OFFSET 1.14428e-005 -43.2815 0
				CHANNELS 6 Xposition Yposition Zposition Zrotation Xrotation Yrotation
				JOINT rtoes
				{
					OFFSET 0 -14.1868 -3.08763
					CHANNELS 6 Xposition Yposition Zposition Zrotation Xrotation Yrotation
					End Site
					{
						OFFSET 0 -7.27332 0
					}
				}
			}
		}
	}
	JOINT lfemur
	{
		OFFSET 9.10607 -9.62778 4.76249
		CHANNELS 6 Xposition Yposition Zposition Zrotation Xrotation Yrotation
		JOINT ltibia
		{
			OFFSET -1.01399e-005 -38.3535 0
			CHANNELS 6 Xposition Yposition Zposition Zrotation Xrotation Yrotation
			JOINT lfoot
			{
				OFFSET -1.12937e-005 -42.7176 0
				CHANNELS 6 Xposition Yposition Zposition Zrotation Xrotation Yrotation
				JOINT ltoes
				{
					OFFSET 0 -13.9965 -2.83857
					CHANNELS 6 Xposition Yposition Zposition Zrotation Xrotation Yrotation
					End Site
					{
						OFFSET 0 -7.16348 0
					}
				}
			}
		}
	}
}
MOTION
Frames: 9
Frame Time: 0.00833333
19.3366	82.5111	52.0554	15.5288	3.45365	-38.3338	0 0 0 8.73868	34.6491	-1.46387	-0.214371 12.3768 -1.12219 -3.30776	15.7418	-0.99665	-0.00137213 12.3873 0.296195 -7.64701	-0.34656	-0.449053	0.0883157 12.5016 0.82912 -2.24753	-6.56919	-0.659206	-1 10.1794 0.943522 -0.95945	-26.7572	-2.17817	0.667525 10.2797 -1.57149 0.3645	-7.14975	-1.27478	0.0883157 12.5016 0.82912 -15	0	-0	20.61 4.45006 1.43784 31.9051	27.9637	113.622	0 -30.3438 0 -0	65.4992	-0	0 -18.964 0 1.32389e-014	-3.24321e-015	-117.53	0 -9.48199 0 1.22245	4.37968	-2.58917e-014	0 -3.17138 0 -0	7.12502	-0	0 -9.48199 0 25	15	-1.36605e-015	0.0883157 12.5016 0.82912 15	0	-0	-20.61 4.45 1.44 -18.2105	35.7084	-135.585	0 -29.5102 0 -0	64.998	-0	0 -19.2342 0 1.6012e-015	-4.46166e-015	129.484	0 -9.61712 0 1.22	4.38	-0	0 -3.29215 0 -0	7.12502	-0	0 -9.61712 0 25	15	-7.97034e-015	-8.46272 -9.62775 4.76248 -1.09281	-61.8868	-2.32409	1.00552e-005 -38.0331 0 -0	18.6791	-0	1.14428e-005 -43.2815 0 -62.4665	-63.0665	-65.0726	0 -14.1868 -3.08763 -0	-34.4698	-0	9.10607 -9.62778 4.76249 -12.4716	-48.3651	24.5075	-1.01399e-005 -38.3535 0 -0	70.8211	-0	-1.12937e-005 -42.7176 0 111.509	-62.5346	109.273	0 -13.9965 -2.83857 -0	-24.3752	-0
19.311	82.6674	52.3493	15.6926	3.67659	-38.5088	0 0 0 8.86632	34.485	-1.51222	-0.214371 12.3768 -1.12219 -3.28622	15.6751	-1.01504	-0.00137213 12.3873 0.296195 -7.67056	-0.365056	-0.453115	0.0883157 12.5016 0.82912 -2.2073	-6.62395	-0.636775	-1 10.1794 0.943522 -0.944303	-26.7361	-2.14522	0.667525 10.2797 -1.57149 0.357573	-7.13341	-1.26646	0.0883157 12.5016 0.82912 -15	0	-0	20.61 4.45006 1.43784 31.857	27.9665	113.587	0 -30.3438 0 -0	65.4276	-0	0 -18.964 0 1.32391e-014	-3.24278e-015	-117.526	0 -9.48199 0 1.22245	4.37968	-2.58917e-014	0 -3.17138 0 -0	7.12502	-0	0 -9.48199 0 25	15	-1.36605e-015	0.0883157 12.5016 0.82912 15	0	-0	-20.61 4.45 1.44 -18.2383	35.7594	-135.629	0 -29.5102 0 -0	64.9623	-0	0 -19.2342 0 1.60954e-015	-4.47177e-015	129.591	0 -9.61712 0 1.22	4.38	-0	0 -3.29215 0 -0	7.12502	-0	0 -9.61712 0 25	15	-7.97034e-015	-8.46272 -9.62775 4.76248 -1.30504	-61.8425	-3.03339	1.00552e-005 -38.0331 0 -0	18.6703	-0	1.14428e-005 -43.2815 0 -62.7721	-62.6011	-65.4478	0 -14.1868 -3.08763 -0	-33.6266	-0	9.10607 -9.62778 4.76249 -12.598	-48.2846	24.4991	-1.01399e-005 -38.3535 0 -0	70.4212	-0	-1.12937e-005 -42.7176 0 111.517	-62.524	109.279	0 -13.9965 -2.83857 -0	-24.42	-0
19.2867	82.8446	52.6497	15.8677	3.88834	-38.7029	0 0 0 8.95273	34.2909	-1.54335	-0.214371 12.3768 -1.12219 -3.27378	15.607	-1.02717	-0.00137213 12.3873 0.296195 -7.68784	-0.374489	-0.454714	0.0883157 12.5016 0.82912 -2.16281	-6.68224	-0.614461	-1 10.1794 0.943522 -0.928402	-26.7095	-2.11208	0.667525 10.2797 -1.57149 0.350261	-7.11346	-1.25862	0.0883157 12.5016 0.82912 -15	0	-0	20.61 4.45006 1.43784 31.8018	27.9571	113.555	0 -30.3438 0 -0	65.3723	-0	0 -18.964 0 1.32394e-014	-3.24235e-015	-117.522	0 -9.48199 0 1.22245	4.37968	-2.58917e-014	0 -3.17138 0 -0	7.12502	-0	0 -9.48199 0 25	15	-1.36605e-015	0.0883157 12.5016 0.82912 15	0	-0	-20.61 4.45 1.44 -18.2898	35.8042	-135.666	0 -29.5102 0 -0	64.9483	-0	0 -19.2342 0 1.62307e-015	-4.48808e-015	129.764	0 -9.61712 0 1.22	4.38	-0	0 -3.29215 0 -0	7.12502	-0	0 -9.61712 0 25	15	-7.97034e-015	-8.46272 -9.62775 4.76248 -1.48932	-61.8054	-3.69017	1.00552e-005 -38.0331 0 -0	18.6399	-0	1.14428e-005 -43.2815 0 -63.0947	-62.2242	-65.821	0 -14.1868 -3.08763 -0	-32.8294	-0	9.10607 -9.62778 4.76249 -12.7377	-48.1704	24.489	-1.01399e-005 -38.3535 0 -0	69.9673	-0	-1.12937e-005 -42.7176 0 111.493	-62.5146	109.256	0 -13.9965 -2.83857 -0	-24.4627	-0
19.2604	83.0422	52.9578	16.0466	4.0883	-38.9117	0 0 0 9.00594	34.0684	-1.56081	-0.214371 12.3768 -1.12219 -3.26754	15.5396	-1.03527	-0.00137213 12.3873 0.296195 -7.70028	-0.372946	-0.455965	0.0883157 12.5016 0.82912 -2.1143	-6.74118	-0.592358	-1 10.1794 0.943522 -0.912753	-26.6809	-2.07955	0.667525 10.2797 -1.57149 0.34202	-7.09127	-1.25148	0.0883157 12.5016 0.82912 -15	0	-0	20.61 4.45006 1.43784 31.7431	27.9351	113.525	0 -30.3438 0 -0	65.3334	-0	0 -18.964 0 1.32396e-014	-3.2418e-015	-117.517	0 -9.48199 0 1.22245	4.37968	-2.58917e-014	0 -3.17138 0 -0	7.12502	-0	0 -9.48199 0 25	15	-1.36605e-015	0.0883157 12.5016 0.82912 15	0	-0	-20.61 4.45 1.44 -18.3617	35.8383	-135.691	0 -29.5102 0 -0	64.9531	-0	0 -19.2342 0 1.64128e-015	-4.50988e-015	129.996	0 -9.61712 0 1.22	4.38	-0	0 -3.29215 0 -0	7.12502	-0	0 -9.61712 0 25	15	-7.97034e-015	-8.46272 -9.62775 4.76248 -1.64855	-61.7738	-4.30212	1.00552e-005 -38.0331 0 -0	18.5986	-0	1.14428e-005 -43.2815 0 -63.386	-61.9447	-66.1455	0 -14.1868 -3.08763 -0	-32.0672	-0	9.10607 -9.62778 4.76249 -12.8868	-48.0171	24.4743	-1.01399e-005 -38.3535 0 -0	69.4602	-0	-1.12937e-005 -42.7176 0 111.441	-62.5071	109.207	0 -13.9965 -2.83857 -0	-24.5005	-0
19.2287	83.2635	53.2741	16.2213	4.27662	-39.1287	0 0 0 9.03541	33.8181	-1.56893	-0.214371 12.3768 -1.12219 -3.2639	15.4748	-1.0421	-0.00137213 12.3873 0.296195 -7.70935	-0.358497	-0.457125	0.0883157 12.5016 0.82912 -2.06206	-6.7978	-0.570789	-1 10.1794 0.943522 -0.898269	-26.6518	-2.04839	0.667525 10.2797 -1.57149 0.332512	-7.06766	-1.24528	0.0883157 12.5016 0.82912 -15	0	-0	20.61 4.45006 1.43784 31.6838	27.9009	113.496	0 -30.3438 0 -0	65.309	-0	0 -18.964 0 1.32401e-014	-3.24093e-015	-117.509	0 -9.48199 0 1.22245	4.37968	-2.58917e-014	0 -3.17138 0 -0	7.12502	-0	0 -9.48199 0 25	15	-1.36605e-015	0.0883157 12.5016 0.82912 15	0	-0	-20.61 4.45 1.44 -18.449	35.8582	-135.703	0 -29.5102 0 -0	64.9729	-0	0 -19.2342 0 1.66315e-015	-4.53581e-015	130.273	0 -9.61712 0 1.22	4.38	-0	0 -3.29215 0 -0	7.12502	-0	0 -9.61712 0 25	15	-7.97034e-015	-8.46272 -9.62775 4.76248 -1.78949	-61.7446	-4.8855	1.00552e-005 -38.0331 0 -0	18.5568	-0	1.14428e-005 -43.2815 0 -63.5985	-61.7704	-66.3759	0 -14.1868 -3.08763 -0	-31.334	-0	9.10607 -9.62778 4.76249 -13.0413	-47.8191	24.4514	-1.01399e-005 -38.3535 0 -0	68.901	-0	-1.12937e-005 -42.7176 0 111.365	-62.5043	109.137	0 -13.9965 -2.83857 -0	-24.5305	-0
19.185	83.505	53.5975	16.3841	4.45414	-39.3458	0 0 0 9.05087	33.5392	-1.57235	-0.214371 12.3768 -1.12219 -3.25891	15.4137	-1.05063	-0.00137213 12.3873 0.296195 -7.71639	-0.329382	-0.458449	0.0883157 12.5016 0.82912 -2.00637	-6.84962	-0.550323	-1 10.1794 0.943522 -0.888023	-26.6209	-2.01928	0.667525 10.2797 -1.57149 0.321674	-7.04276	-1.2402	0.0883157 12.5016 0.82912 -15	0	-0	20.61 4.45006 1.43784 31.6264	27.8551	113.468	0 -30.3438 0 -0	65.2962	-0	0 -18.964 0 1.32408e-014	-3.23952e-015	-117.496	0 -9.48199 0 1.22245	4.37968	-2.58917e-014	0 -3.17138 0 -0	7.12502	-0	0 -9.48199 0 25	15	-1.36605e-015	0.0883157 12.5016 0.82912 15	0	-0	-20.61 4.45 1.44 -18.5454	35.8619	-135.701	0 -29.5102 0 -0	65.0032	-0	0 -19.2342 0 1.68721e-015	-4.56406e-015	130.576	0 -9.61712 0 1.22	4.38	-0	0 -3.29215 0 -0	7.12502	-0	0 -9.61712 0 25	15	-7.97034e-015	-8.46272 -9.62775 4.76248 -1.92174	-61.7138	-5.46172	1.00552e-005 -38.0331 0 -0	18.5242	-0	1.14428e-005 -43.2815 0 -63.6879	-61.7069	-66.4708	0 -14.1868 -3.08763 -0	-30.6296	-0	9.10607 -9.62778 4.76249 -13.1968	-47.5712	24.4174	-1.01399e-005 -38.3535 0 -0	68.2913	-0	-1.12937e-005 -42.7176 0 111.27	-62.5109	109.051	0 -13.9965 -2.83857 -0	-24.5496	-0
19.1199	83.763	53.9252	16.5282	4.62224	-39.5543	0 0 0 9.0613	33.2296	-1.57548	-0.214371 12.3768 -1.12219 -3.24871	15.3567	-1.06378	-0.00137213 12.3873 0.296195 -7.72256	-0.2842	-0.460193	0.0883157 12.5016 0.82912 -1.94766	-6.89518	-0.531764	-1 10.1794 0.943522 -0.88029	-26.5837	-1.9928	0.667525 10.2797 -1.57149 0.309411	-7.01581	-1.23931	0.0883157 12.5016 0.82912 -15	0	-0	20.61 4.45006 1.43784 31.5728	27.799	113.442	0 -30.3438 0 -0	65.2913	-0	0 -18.964 0 1.32419e-014	-3.23746e-015	-117.477	0 -9.48199 0 1.22245	4.37968	-2.58917e-014	0 -3.17138 0 -0	7.12502	-0	0 -9.48199 0 25	15	-1.36605e-015	0.0883157 12.5016 0.82912 15	0	-0	-20.61 4.45 1.44 -18.6438	35.8489	-135.686	0 -29.5102 0 -0	65.039	-0	0 -19.2342 0 1.71214e-015	-4.59302e-015	130.888	0 -9.61712 0 1.22	4.38	-0	0 -3.29215 0 -0	7.12502	-0	0 -9.61712 0 25	15	-7.97034e-015	-8.46272 -9.62775 4.76248 -2.05641	-61.6769	-6.05317	1.00552e-005 -38.0331 0 -0	18.5086	-0	1.14428e-005 -43.2815 0 -63.6162	-61.7566	-66.3949	0 -14.1868 -3.08763 -0	-29.9615	-0	9.10607 -9.62778 4.76249 -13.3493	-47.2689	24.3702	-1.01399e-005 -38.3535 0 -0	67.6331	-0	-1.12937e-005 -42.7176 0 111.164	-62.5331	108.958	0 -13.9965 -2.83857 -0	-24.5545	-0
19.033	84.0362	54.2558	16.649	4.78268	-39.7454	0 0 0 9.07417	32.8865	-1.58219	-0.214371 12.3768 -1.12219 -3.22997	15.3032	-1.08421	-0.00137213 12.3873 0.296195 -7.72879	-0.222109	-0.46536	0.0883157 12.5016 0.82912 -1.8865	-6.9346	-0.516106	-1 10.1794 0.943522 -0.873357	-26.5328	-1.96934	0.667525 10.2797 -1.57149 0.296819	-6.98515	-1.23867	0.0883157 12.5016 0.82912 -15	0	-0	20.61 4.45006 1.43784 31.5249	27.7346	113.417	0 -30.3438 0 -0	65.2897	-0	0 -18.964 0 1.32435e-014	-3.23442e-015	-117.449	0 -9.48199 0 1.22245	4.37968	-2.58917e-014	0 -3.17138 0 -0	7.12502	-0	0 -9.48199 0 25	15	-1.36605e-015	0.0883157 12.5016 0.82912 15	0	-0	-20.61 4.45 1.44 -18.7363	35.8206	-135.661	0 -29.5102 0 -0	65.0757	-0	0 -19.2342 0 1.73627e-015	-4.62073e-015	131.188	0 -9.61712 0 1.22	4.38	-0	0 -3.29215 0 -0	7.12502	-0	0 -9.61712 0 25	15	-7.97034e-015	-8.46272 -9.62775 4.76248 -2.20443	-61.6296	-6.67855	1.00552e-005 -38.0331 0 -0	18.5154	-0	1.14428e-005 -43.2815 0 -63.3531	-61.9167	-66.1206	0 -14.1868 -3.08763 -0	-29.3433	-0	9.10607 -9.62778 4.76249 -13.4954	-46.9091	24.3094	-1.01399e-005 -38.3535 0 -0	66.9282	-0	-1.12937e-005 -42.7176 0 111.053	-62.5782	108.864	0 -13.9965 -2.83857 -0	-24.5427	-0
18.9229	84.3241	54.588	16.7435	4.93743	-39.9115	0 0 0 9.09503	32.5059	-1.59556	-0.214371 12.3768 -1.12219 -3.20019	15.2518	-1.11409	-0.00137213 12.3873 0.296195 -7.73579	-0.142997	-0.473829	0.0883157 12.5016 0.82912 -1.82374	-6.96998	-0.504459	-1 10.1794 0.943522 -0.864445	-26.4574	-1.94911	0.667525 10.2797 -1.57149 0.284813	-6.94804	-1.23819	0.0883157 12.5016 0.82912 -15	0	-0	20.61 4.45006 1.43784 31.4842	27.6644	113.393	0 -30.3438 0 -0	65.2879	-0	0 -18.964 0 1.32456e-014	-3.23028e-015	-117.411	0 -9.48199 0 1.22245	4.37968	-2.58917e-014	0 -3.17138 0 -0	7.12502	-0	0 -9.48199 0 25	15	-1.36605e-015	0.0883157 12.5016 0.82912 15	0	-0	-20.61 4.45 1.44 -18.815	35.7799	-135.632	0 -29.5102 0 -0	65.1086	-0	0 -19.2342 0 1.75826e-015	-4.64574e-015	131.46	0 -9.61712 0 1.22	4.38	-0	0 -3.29215 0 -0	7.12502	-0	0 -9.61712 0 25	15	-7.97034e-015	-8.46272 -9.62775 4.76248 -2.37487	-61.5677	-7.34872	1.00552e-005 -38.0331 0 -0	18.5475	-0	1.14428e-005 -43.2815 0 -62.8779	-62.1782	-65.6293	0 -14.1868 -3.08763 -0	-28.7943	-0	9.10607 -9.62778 4.76249 -13.6319	-46.4899	24.236	-1.01399e-005 -38.3535 0 -0	66.1784	-0	-1.12937e-005 -42.7176 0 110.946	-62.6543	108.778	0 -13.9965 -2.83857 -0	-24.5122	-0
